<svg xmlns="http://www.w3.org/2000/svg" style="display:none">
  <symbol id="github" viewBox="0 0 24 24">
    <path fill="currentColor"
      d="M12 0.5C5.4 0.5 0 5.9 0 12.5c0 5.3 3.4 9.8 8.2 11.4.6.1.8-.3.8-.6v-2.2c-3.3.7-4-1.6-4-1.6-.5-1.3-1.2-1.6-1.2-1.6-1-.7.1-.7.1-.7 1.1.1 1.6 1.1 1.6 1.1 1 .1 1.6 1.6 1.6 1.6.9 1.5 2.4 1 3 .8.1-.7.4-1 .7-1.2-2.7-.3-5.5-1.3-5.5-6 0-1.3.5-2.4 1.2-3.3-.1-.3-.5-1.3.1-2.8 0 0 1-.3 3.3 1.2a11.3 11.3 0 0 1 6 0c2.3-1.5 3.3-1.2 3.3-1.2.6 1.5.2 2.5.1 2.8.7.9 1.2 2 1.2 3.3 0 4.7-2.8 5.6-5.5 6 .4.3.8 1 .8 2v3c0 .3.2.7.8.6A12 12 0 0 0 24 12.5c0-6.6-5.4-12-12-12z"/>
  </symbol>
  <symbol id="linkedin" viewBox="0 0 24 24">
    <path fill="currentColor"
      d="M4.98 3.5A2.5 2.5 0 1 1 5 8.5 2.5 2.5 0 0 1 4.98 3.5zM3 9h4v12H3zM9 9h4v1.7h.1a4.4 4.4 0 0 1 4-2.2c4.3 0 5 2.8 5 6.3V21h-4v-5.4c0-1.3 0-3-1.9-3-2 0-2.3 1.6-2.3 2.9V21h-4z"/>
  </symbol>
  <symbol id="rss" viewBox="0 0 24 24">
    <path fill="currentColor"
      d="M6.18 17.82a2.18 2.18 0 1 0 0-4.36 2.18 2.18 0 0 0 0 4.36zM4 11v2a7 7 0 0 1 7 7h2c0-5 0-9-9-9zM4 7v2a11 11 0 0 1 11 11h2c0-7 0-13-13-13z"/>
  </symbol>
</svg>

